<svg width="52" height="52" fill="none" xmlns="http://www.w3.org/2000/svg"><path d="M15.31 3.192c2.776-.128 3.618-.155 10.72-.155v.034c7.035 0 7.94 0 10.762.156a15.63 15.63 0 015.232.977 9.85 9.85 0 015.648 5.64c.644 1.7.985 3.477 1.016 5.283.128 2.78.154 3.621.154 10.724 0 7.034 0 7.938-.157 10.761a15.532 15.532 0 01-.973 5.23 9.851 9.851 0 01-5.642 5.65 15.711 15.711 0 01-5.32 1.016c-2.777.128-3.618.155-10.72.155-7.036 0-7.94 0-10.762-.158a15.518 15.518 0 01-5.23-.974 9.858 9.858 0 01-5.65-5.643 15.69 15.69 0 01-1.016-5.317c-.128-2.778-.155-3.619-.155-10.72 0-7.036 0-7.94.157-10.764.02-1.762.35-3.536.976-5.231a9.85 9.85 0 015.642-5.648 15.69 15.69 0 015.317-1.016zM1.917 8.876a18.31 18.31 0 00-1.152 6.067C.622 17.775.59 18.707.59 25.85c0 7.148 0 8.066.16 10.868a18.505 18.505 0 001.163 6.121 12.51 12.51 0 007.145 7.124 18.333 18.333 0 006.064 1.15c2.778.126 3.61.163 10.908.163 7.151 0 8.07 0 10.866-.161a18.389 18.389 0 006.122-1.163 12.506 12.506 0 007.132-7.14 18.284 18.284 0 001.146-6.056c.13-2.888.161-3.833.161-10.906 0-7.151 0-8.068-.16-10.87a18.44 18.44 0 00-1.164-6.122 12.525 12.525 0 00-7.13-7.126A18.423 18.423 0 0036.936.585C34.107.443 33.177.411 26.03.411L24.972.384c-6.192 0-7.155.007-9.81.159A18.472 18.472 0 009.04 1.707a12.492 12.492 0 00-7.122 7.169z" fill="#fff"/><path d="M26.03 35.743l-1.058-.061c-4.96-.53-8.836-4.741-8.836-9.84 0-5.453 4.439-9.892 9.895-9.892 5.454 0 9.893 4.439 9.893 9.892 0 5.463-4.439 9.901-9.893 9.901zm0-22.441c-6.917 0-12.548 5.63-12.548 12.55 0 6.918 5.631 12.546 12.549 12.546 6.918 0 12.546-5.628 12.546-12.547 0-6.918-5.628-12.549-12.546-12.549zM40.17 9.59c-1.168 0-2.12.951-2.12 2.12 0 1.168.952 2.12 2.12 2.12 1.17 0 2.12-.952 2.12-2.12 0-1.169-.95-2.12-2.12-2.12z" fill="#fff"/></svg>