<svg width="58" height="58" xmlns="http://www.w3.org/2000/svg" viewBox="0 0 44.58 44.58"><g id="Слой_2" data-name="Слой 2"><path d="M10.06 4.13a2 2 0 011.35.66h0c.56.53 1.12 1.07 1.67 1.65.29.29.58.58.87.89l2.55 2.52a1.75 1.75 0 010 2.86c-.27.29-.51.55-.8.82-.78.8-1.53 1.52-2.33 2.25 0 0 0 0 0 0a1.89 1.89 0 00-.51 2.22v.07a20 20 0 003 4.89 34.19 34.19 0 008.25 7.48c.38.24.77.44 1.13.63a9.68 9.68 0 01.92.48l.12.08a2.29 2.29 0 00.92.24 2 2 0 001.41-.63l3.2-3.24a2.09 2.09 0 011.4-.71 1.89 1.89 0 011.33.68h0l5.13 5.11a1.81 1.81 0 010 2.9c-.36.39-.72.75-1.13 1.14-.61.58-1.21 1.18-1.79 1.84a4.56 4.56 0 01-3.49 1.47h-.43a20.53 20.53 0 01-7.26-2.15 41.32 41.32 0 01-13.72-10.7 39.45 39.45 0 01-6.63-11.1 13.63 13.63 0 01-1-5.79 4.22 4.22 0 011.24-2.76l3.17-3.14a2.16 2.16 0 011.43-.66zm0-3.63a5.66 5.66 0 00-3.9 1.65L2.89 5.37a7.89 7.89 0 00-2.34 5 16.59 16.59 0 001.25 7.39 41.28 41.28 0 007.31 12.15A45 45 0 0024 41.56a23.67 23.67 0 008.59 2.52h.68a8.08 8.08 0 006.14-2.62v-.14a17 17 0 011.52-1.58l.15-.12h.05l.67-.7.42-.41a5.4 5.4 0 00-.1-8l-5.08-5.06a5.46 5.46 0 00-4-1.77 5.6 5.6 0 00-4 1.75l-2.35 2.34a9.16 9.16 0 01-.82-.43 30.42 30.42 0 01-7.38-6.71v-.07a17.65 17.65 0 01-1.94-2.91c.56-.53 1.09-1.06 1.6-1.57l.51-.51.26-.26a5.59 5.59 0 001.82-4 5.61 5.61 0 00-1.84-4l-2.36-2.52-.41-.44-.41-.41c-.61-.63-1.19-1.21-1.79-1.77A5.68 5.68 0 0010.05.5z" fill="#fff" stroke="#1d1d1b" stroke-miterlimit="10" id="Header"/></g></svg>