<svg width="64" height="64" fill="none" xmlns="http://www.w3.org/2000/svg"><path d="M48.13 43.4c-.526 1.433-3.515 3.147-5.023 3.377-1.679.28-3.399.176-5.032-.304a51.248 51.248 0 01-4.902-1.784c-6.905-2.935-11.968-9.056-14.369-12.45a3.568 3.568 0 00-.19-.258c-.762-1.028-3.346-4.674-3.346-8.24a8.42 8.42 0 012.59-6.244l.185-.191c.387-.439.939-.7 1.524-.716h1.89c.244 0 .389 0 .716.761.245.572.603 1.419.977 2.288.998 2.394 1.616 3.872 1.768 4.178.153.305.122.389.076.48l-.13.244h.002c-.15.349-.349.673-.596.96l-.465.557c-.24.31-.493.608-.762.892a2.382 2.382 0 00-.564 3.164 26.967 26.967 0 005.114 6.265 23.988 23.988 0 006.793 4.231l.525.228a2.503 2.503 0 003.263-.48c.44-.495 2.226-2.553 2.873-3.507.061-.09.108-.137.114-.152.183.032.363.083.535.152.686.244 4.74 2.204 5.884 2.76l.496.244c.236.107.51.244.67.336a8.297 8.297 0 01-.617 3.208zm2.56-4.315a3.58 3.58 0 00-1.683-1.212l-.472-.228c-.045 0-5.13-2.508-6.1-2.859-.716-.259-2.195-.763-3.308.861-.495.763-1.998 2.494-2.692 3.278-.06.069-.107.098-.107.108h.002a1.255 1.255 0 01-.443-.162c-.152-.076-.373-.166-.632-.281a21.655 21.655 0 01-6.183-3.812 24.813 24.813 0 01-4.657-5.717l-.107-.122c.078-.094.163-.184.25-.266.306-.299.634-.695.946-1.068l.443-.519c.37-.436.677-.92.916-1.44l.113-.236v-.001a2.677 2.677 0 00-.068-2.546c-.139-.266-1.044-2.438-1.708-4.024l-.968-2.325c-.816-1.928-1.868-2.172-2.844-2.18h-1.874a4.37 4.37 0 00-3.18 1.448l-.16.168a10.673 10.673 0 00-3.194 7.82c0 4.163 2.67 8.119 3.812 9.636l.13.19c2.546 3.583 7.92 10.071 15.346 13.226a51.43 51.43 0 005.114 1.86 12.46 12.46 0 003.742.564c.767 0 1.532-.061 2.288-.183 1.822-.266 5.884-2.218 6.859-4.848.633-1.753.993-4.138.412-5.1l.008-.03z" fill="#fff"/><path d="M52.512 52.38a29.598 29.598 0 01-36.285 4.117 1.112 1.112 0 00-.593-.168c-.187.001-.37.046-.535.13L3.207 60.026 6.82 48.371c.21-.358.21-.8 0-1.158a28.366 28.366 0 014.14-35.637 29.726 29.726 0 0141.552 0 28.524 28.524 0 010 40.812v-.007zM9.36 9.936A30.639 30.639 0 004.555 47.96L.385 61.398a1.15 1.15 0 00.291 1.144 1.13 1.13 0 001.136.29l13.722-4.109a31.87 31.87 0 0038.61-4.71 30.81 30.81 0 000-44.077 32.014 32.014 0 00-44.785 0z" fill="#fff"/></svg>