<svg xmlns="http://www.w3.org/2000/svg" viewBox="0 0 828 325.84"><g id="Слой_2" data-name="Слой 2"><g id="Header"><path d="M43.44 2.23H0V144h39.27q35.79 0 54.84-18.57t19-53.67q0-32.88-18.33-51.2T43.44 2.23zm37.43 113Q66 129.75 36.55 129.74H16.48V16.47h24q27.45 0 41.36 14.07t13.87 41.79q0 28.43-14.84 42.91zm83.56 28.76h79.03v-14.74h-62.55V77.09h58.76V62.55h-58.76V16.87h62.55V2.23h-79.03v141.76zm220-101.71q0-20.07-12.46-30.06t-38.55-10h-38.88V144H311V85h29.57l34.33 59h19.49l-38.47-63.72q28.5-9.87 28.51-38zm-50.82 28.6H311v-54.2h21.43q18.33 0 26.61 6.2t8.3 20.26q0 13.88-8.14 20.8t-25.59 6.94zm182.37 58.37h-62.54V77.09h58.77V62.55h-58.77V16.87h62.54V2.23h-79.02v141.76h79.02v-14.74zm98.7 14.75L665.77 2.23H648l-32.36 91.14a258.23 258.23 0 00-9.11 31.32A258.41 258.41 0 00597.61 94L565 2.23h-17.42L598.38 144zm-277.99 40.64h-36.6v141.2h16.42v-55.53h16.61q27.24 0 41.87-11.55t14.63-33q0-41.12-52.93-41.12zm26.18 64.51q-9.76 7.07-31.59 7h-14.77v-57.31h18.34q19.42 0 28.6 6.85t9.17 20.87q0 15.54-9.75 22.59zm112.3-65.1l-55.83 141.79H436l17.38-44.92h56.6l17.57 44.92h17L489 184.05zm-16 82.1l16.62-43.75a183.94 183.94 0 006.04-20.4q3.39 12.06 6.57 20.37l16.42 43.75zM673 224.53q0-20-12.4-29.94t-38.39-10h-38.7v141.2h16.42v-58.67h29.45l34.2 58.72H683l-38.33-63.45Q673 252.54 673 224.53zM622.43 253h-22.5v-54h21.34q18.26 0 26.51 6.17T656 225.4q0 13.8-8.11 20.72T622.43 253zm146-7.03l56.8-61.33h-19.42l-64.03 70.02v-70.02h-16.42v141.2h16.42V270.5l14.78-13.14 48.66 64.74 2.81 3.74h19.33l-15.86-21.5-43.07-58.37zm42.38-119.28a61.22 61.22 0 009.24-14.15v-.09c5.29-10.92 8-24.21 8-39.95a110.63 110.63 0 00-1-14.08v-.05c-.19-1.46-.41-2.88-.65-4.29l-.06-.42a76.82 76.82 0 00-6.3-20.12 61 61 0 00-9.24-14.15Q793.65 0 763.11 0q-31.43 0-48.49 19.05t-17.06 53.68v.62q0 34.62 17.06 53.68t48.49 19q30.54.04 47.7-19.34zm-83.53-10.24q-7.57-9.18-10.46-23.51A101.87 101.87 0 01715 73a102.11 102.11 0 011.82-20q2.91-14.25 10.44-23.41 12.27-14.88 35.83-14.88t35.44 14.79C804.92 37.4 808.7 48.26 810 62c.33 3.47.53 7.07.53 10.92s-.17 7.67-.51 11.22v-.06c-1.29 13.73-5.07 24.6-11.44 32.47-.31.39-.65.76-1 1.13s-.54.62-.82.92c-.43.46-.86.91-1.3 1.34l-.58.53c-.86.8-1.74 1.55-2.66 2.26l-.64.48q-11.09 8.13-28.46 8.13-23.57 0-35.84-14.89z" fill="#f1f1f1" id="DEREVO_PARK_фон" data-name="DEREVO PARK фон"/></g></g></svg>