<svg xmlns="http://www.w3.org/2000/svg" viewBox="0 0 349.09 140.8"><defs><style>.cls-1{fill:#fff}</style></defs><g id="Слой_2" data-name="Слой 2"><g id="Header"><g id="Лого"><path class="cls-1" d="M9.23 32.43H0v30.12h8.34q7.61 0 11.65-3.95T24 47.2q0-7-3.89-10.88T9.23 32.43zm8 24q-3.23 3.1-9.46 3.09H3.5V35.46h5.09c3.89 0 6.82 1 8.79 3s2.95 4.95 2.95 8.87-1.05 7.06-3.15 9.11zm34.49 2.99H38.43V48.34h12.49v-3.1H38.43v-9.7h13.29v-3.11H34.93v30.12h16.79v-3.13zM66.08 50h6.28l7.29 12.53h4.14L75.61 49q6.06-2.1 6.06-8.07 0-4.26-2.65-6.39t-8.19-2.12h-8.26v30.13h3.51zm0-14.52h4.55c2.59 0 4.48.44 5.65 1.32A5 5 0 0178 41.12a5.45 5.45 0 01-1.73 4.42c-1.15 1-3 1.48-5.44 1.48h-4.75zm43.54 23.94H96.33V48.34h12.49v-3.1H96.33v-9.7h13.29v-3.11H92.83v30.12h16.79v-3.13zm20.97 3.13l10.85-30.12h-3.77l-6.88 19.36a55.2 55.2 0 00-1.94 6.66 53.06 53.06 0 00-1.85-6.53l-7-19.49h-3.71l10.79 30.12zM48.38 83.06h-7.81v30.12h3.51v-11.85h3.54q5.81 0 8.93-2.46a8.44 8.44 0 003.12-7q0-8.81-11.29-8.81zM54 96.82c-1.38 1-3.63 1.5-6.73 1.5h-3.19V86.09H48c2.76 0 4.79.48 6.1 1.46A5.2 5.2 0 0156 92a5.53 5.53 0 01-2 4.82zm23.92-13.89L66 113.18h3.54l3.71-9.58h12.08l3.75 9.58h3.63L80.86 82.93zm-3.42 17.51l3.5-9.33a39.14 39.14 0 001.3-4.34c.48 1.71 1 3.16 1.4 4.34l3.5 9.33zm30.03.21h6.28l7.29 12.53h4.14l-8.17-13.54q6-2.1 6.05-8.07c0-2.85-.88-5-2.65-6.39s-4.49-2.12-8.18-2.12H101v30.12h3.5zm0-14.52h4.55q3.9 0 5.65 1.31a5 5 0 011.77 4.31 5.5 5.5 0 01-1.73 4.42q-1.74 1.47-5.44 1.47h-4.8z"/><path class="cls-1" d="M349.09 0h-2L212 78 271.51.19h-1.23l-60.6 79.16L151.46 113l.46-1.3 18-50.81 5.83-16.5 16-43.92h-3.45l-14 38.64a12.76 12.76 0 00-2-3Q168.61 32 162.12 32q-6.68 0-10.3 4t-3.63 11.41q0 7.41 3.62 11.48T162.08 63a16.74 16.74 0 003.85-.44l-16.28 46.07-9.18-12.45 12.11-13.08h-4.14L134.78 98V83.06h-3.5v30.12h3.5v-11.81l3.16-2.8 10.38 13.81-1.09 3-43.9 25.35h2.12l41.23-23.82-8.54 23.86h3.3l9.47-26.3 57.13-33-45.38 59.29H164l46.37-60.66zm-187 59.89q-5 0-7.57-3.16t-2.61-9.28q0-6 2.61-9.2c1.74-2.11 4.27-3.16 7.61-3.16s5.83 1 7.53 3.14a12.63 12.63 0 012.43 6.9l-4.8 13.58a10.71 10.71 0 01-5.21 1.18z"/></g></g></g></svg>