<svg xmlns="http://www.w3.org/2000/svg" viewBox="0 0 828 325.84"><defs><style>.cls-1{fill:#f1f1f1;}</style></defs><g id="Слой_2" data-name="Слой 2"><g id="Header"><g id="DEREVO_PARK_фон" data-name="DEREVO PARK фон"><path class="cls-1" d="M43.44,2.23H0V144H39.27q35.79,0,54.84-18.57t19-53.67q0-32.88-18.33-51.2T43.44,2.23Zm37.43,113Q66,129.75,36.55,129.74H16.48V16.47h24q27.45,0,41.36,14.07T95.71,72.33Q95.71,100.76,80.87,115.24Z"/><polygon class="cls-1" points="164.43 143.99 243.46 143.99 243.46 129.25 180.91 129.25 180.91 77.09 239.67 77.09 239.67 62.55 180.91 62.55 180.91 16.87 243.46 16.87 243.46 2.23 164.43 2.23 164.43 143.99"/><path class="cls-1" d="M384.43,42.28q0-20.07-12.46-30.06t-38.55-10H294.54V144H311V85h29.57l34.33,59h19.49L355.92,80.28Q384.42,70.41,384.43,42.28Zm-50.82,28.6H311V16.68h21.43q18.33,0,26.61,6.2t8.3,20.26q0,13.88-8.14,20.8T333.61,70.88Z"/><polygon class="cls-1" points="515.98 129.25 453.44 129.25 453.44 77.09 512.21 77.09 512.21 62.55 453.44 62.55 453.44 16.87 515.98 16.87 515.98 2.23 436.96 2.23 436.96 143.99 515.98 143.99 515.98 129.25"/><path class="cls-1" d="M614.68,144,665.77,2.23H648L615.64,93.37a258.23,258.23,0,0,0-9.11,31.32A258.41,258.41,0,0,0,597.61,94L565,2.23H547.58L598.38,144Z"/><path class="cls-1" d="M336.69,184.64h-36.6v141.2h16.42V270.31h16.61q27.24,0,41.87-11.55t14.63-33Q389.62,184.64,336.69,184.64Zm26.18,64.51q-9.76,7.07-31.59,7H316.51V198.84h18.34q19.42,0,28.6,6.85t9.17,20.87Q372.62,242.1,362.87,249.15Z"/><path class="cls-1" d="M475.17,184.05,419.34,325.84H436l17.38-44.92h56.6l17.57,44.92h17L489,184.05Zm-16,82.1,16.62-43.75A183.94,183.94,0,0,0,481.83,202q3.39,12.06,6.57,20.37l16.42,43.75Z"/><path class="cls-1" d="M673,224.53q0-20-12.4-29.94t-38.39-10H583.51v141.2h16.42V267.12h29.45l34.2,58.72H683l-38.33-63.45Q673,252.54,673,224.53ZM622.43,253h-22.5V199h21.34q18.26,0,26.51,6.17T656,225.4q0,13.8-8.11,20.72T622.43,253Z"/><polygon class="cls-1" points="768.43 245.97 825.23 184.64 805.81 184.64 741.78 254.66 741.78 184.64 725.36 184.64 725.36 325.84 741.78 325.84 741.78 270.5 756.56 257.36 805.22 322.1 808.03 325.84 819.62 325.84 827.36 325.84 811.5 304.34 768.43 245.97"/><path class="cls-1" d="M810.81,126.69a61.22,61.22,0,0,0,9.24-14.15l0-.09c5.29-10.92,8-24.21,8-39.95a110.63,110.63,0,0,0-1-14.08l0-.05c-.19-1.46-.41-2.88-.65-4.29l-.06-.42h0a76.82,76.82,0,0,0-6.3-20.12,61,61,0,0,0-9.24-14.15Q793.65,0,763.11,0q-31.43,0-48.49,19.05T697.56,72.73v.62q0,34.62,17.06,53.68t48.49,19Q793.65,146.07,810.81,126.69Zm-83.53-10.24q-7.57-9.18-10.46-23.51A101.87,101.87,0,0,1,715,73a102.11,102.11,0,0,1,1.82-20q2.91-14.25,10.44-23.41,12.27-14.88,35.83-14.88t35.44,14.79C804.92,37.4,808.7,48.26,810,62c.33,3.47.53,7.07.53,10.92s-.17,7.67-.51,11.22l0-.06c-1.29,13.73-5.07,24.6-11.44,32.47-.31.39-.65.76-1,1.13s-.54.62-.82.92c-.43.46-.86.91-1.3,1.34l-.58.53c-.86.8-1.74,1.55-2.66,2.26l-.64.48q-11.09,8.13-28.46,8.13Q739.55,131.34,727.28,116.45Z"/></g></g></g></svg>