<svg xmlns="http://www.w3.org/2000/svg" viewBox="0 0 349.09 140.8"><defs><style>.cls-1{fill:#fff;}</style></defs><g id="Слой_2" data-name="Слой 2"><g id="Header"><g id="Лого"><path class="cls-1" d="M9.23,32.43H0V62.55H8.34q7.61,0,11.65-3.95T24,47.2q0-7-3.89-10.88T9.23,32.43Zm8,24Q14,59.53,7.77,59.52H3.5V35.46H8.59c3.89,0,6.82,1,8.79,3s2.95,4.95,2.95,8.87S19.28,54.39,17.18,56.44Z"/><polygon class="cls-1" points="51.72 59.42 38.43 59.42 38.43 48.34 50.92 48.34 50.92 45.24 38.43 45.24 38.43 35.54 51.72 35.54 51.72 32.43 34.93 32.43 34.93 62.55 51.72 62.55 51.72 59.42"/><path class="cls-1" d="M66.08,50h6.28l7.29,12.53h4.14L75.61,49q6.06-2.1,6.06-8.07,0-4.26-2.65-6.39t-8.19-2.12H62.57V62.55h3.51Zm0-14.52h4.55c2.59,0,4.48.44,5.65,1.32A5,5,0,0,1,78,41.12a5.45,5.45,0,0,1-1.73,4.42c-1.15,1-3,1.48-5.44,1.48H66.08Z"/><polygon class="cls-1" points="109.62 59.42 96.33 59.42 96.33 48.34 108.82 48.34 108.82 45.24 96.33 45.24 96.33 35.54 109.62 35.54 109.62 32.43 92.83 32.43 92.83 62.55 109.62 62.55 109.62 59.42"/><path class="cls-1" d="M130.59,62.55l10.85-30.12h-3.77l-6.88,19.36a55.2,55.2,0,0,0-1.94,6.66A53.06,53.06,0,0,0,127,51.92L120,32.43h-3.71l10.79,30.12Z"/><path class="cls-1" d="M48.38,83.06H40.57v30.12h3.51V101.33h3.54q5.81,0,8.93-2.46a8.44,8.44,0,0,0,3.12-7Q59.67,83.06,48.38,83.06ZM54,96.82c-1.38,1-3.63,1.5-6.73,1.5H44.08V86.09H48c2.76,0,4.79.48,6.1,1.46A5.2,5.2,0,0,1,56,92,5.53,5.53,0,0,1,54,96.82Z"/><path class="cls-1" d="M77.92,82.93,66,113.18h3.54l3.71-9.58H85.33l3.75,9.58h3.63L80.86,82.93ZM74.5,100.44,78,91.11a39.14,39.14,0,0,0,1.3-4.34c.48,1.71,1,3.16,1.4,4.34l3.5,9.33Z"/><path class="cls-1" d="M104.53,100.65h6.28l7.29,12.53h4.14l-8.17-13.54q6-2.1,6.05-8.07c0-2.85-.88-5-2.65-6.39s-4.49-2.12-8.18-2.12H101v30.12h3.5Zm0-14.52h4.55q3.9,0,5.65,1.31a5,5,0,0,1,1.77,4.31,5.5,5.5,0,0,1-1.73,4.42q-1.74,1.47-5.44,1.47h-4.8Z"/><path class="cls-1" d="M349.09,0h-2L212,78,271.51.19h-1.23l-60.6,79.16L151.46,113l.46-1.3,18-50.81,5.83-16.5,16-43.92h-3.45l-14,38.64a12.76,12.76,0,0,0-2-3Q168.61,32,162.12,32q-6.68,0-10.3,4t-3.63,11.41q0,7.41,3.62,11.48T162.08,63a16.74,16.74,0,0,0,3.85-.44l-16.28,46.07-9.18-12.45,12.11-13.08h-4.14L134.78,98V83.06h-3.5v30.12h3.5V101.37l3.16-2.8,10.38,13.81-1.09,3-43.9,25.35h2.12l41.23-23.82-8.54,23.86h3.3l9.47-26.3,57.13-33-45.38,59.29H164l46.37-60.66Zm-187,59.89q-5,0-7.57-3.16t-2.61-9.28q0-6,2.61-9.2c1.74-2.11,4.27-3.16,7.61-3.16s5.83,1,7.53,3.14a12.63,12.63,0,0,1,2.43,6.9l-4.8,13.58A10.71,10.71,0,0,1,162.08,59.89Z"/></g></g></g></svg>