<svg width="58" height="58" xmlns="http://www.w3.org/2000/svg" viewBox="0 0 44.58 44.58"><defs><style>.cls-1{fill:#fff;stroke:#1d1d1b;stroke-miterlimit:10;}</style></defs><g id="Слой_2" data-name="Слой 2"><g id="Header"><path class="cls-1" d="M10.06,4.13a2,2,0,0,1,1.35.66l0,0c.56.53,1.12,1.07,1.67,1.65.29.29.58.58.87.89l2.55,2.52a1.75,1.75,0,0,1,0,2.86c-.27.29-.51.55-.8.82-.78.8-1.53,1.52-2.33,2.25,0,0,0,0,0,0A1.89,1.89,0,0,0,12.86,18s0,0,0,.07a20,20,0,0,0,3,4.89,34.19,34.19,0,0,0,8.25,7.48c.38.24.77.44,1.13.63a9.68,9.68,0,0,1,.92.48l.12.08a2.29,2.29,0,0,0,.92.24,2,2,0,0,0,1.41-.63L31.81,28a2.09,2.09,0,0,1,1.4-.71,1.89,1.89,0,0,1,1.33.68l0,0,5.13,5.11a1.81,1.81,0,0,1,0,2.9c-.36.39-.72.75-1.13,1.14-.61.58-1.21,1.18-1.79,1.84a4.56,4.56,0,0,1-3.49,1.47h-.43a20.53,20.53,0,0,1-7.26-2.15,41.32,41.32,0,0,1-13.72-10.7A39.45,39.45,0,0,1,5.22,16.48a13.63,13.63,0,0,1-1-5.79A4.22,4.22,0,0,1,5.46,7.93L8.63,4.79a2.16,2.16,0,0,1,1.43-.66Zm0-3.63a5.66,5.66,0,0,0-3.9,1.65L2.89,5.37a7.89,7.89,0,0,0-2.34,5A16.59,16.59,0,0,0,1.8,17.76,41.28,41.28,0,0,0,9.11,29.91,45,45,0,0,0,24,41.56a23.67,23.67,0,0,0,8.59,2.52h.68a8.08,8.08,0,0,0,6.14-2.62l0-.07,0-.07a17,17,0,0,1,1.52-1.58l.15-.12h.05l.67-.7.42-.41a5.4,5.4,0,0,0-.1-8l-5.08-5.06a5.46,5.46,0,0,0-4-1.77,5.6,5.6,0,0,0-4,1.75l-2.35,2.34a9.16,9.16,0,0,1-.82-.43,30.42,30.42,0,0,1-7.38-6.71l0-.07a17.65,17.65,0,0,1-1.94-2.91c.56-.53,1.09-1.06,1.6-1.57l.51-.51.26-.26a5.59,5.59,0,0,0,1.82-4,5.61,5.61,0,0,0-1.84-4L16.54,4.79l-.41-.44-.41-.41c-.61-.63-1.19-1.21-1.79-1.77A5.68,5.68,0,0,0,10.05.5Z"/></g></g></svg>